<svg width="47" height="37" viewBox="0 0 47 37" fill="none" xmlns="http://www.w3.org/2000/svg">
<path d="M44.5 20.9102C45.8807 20.9102 47 19.7909 47 18.4102C47 17.0294 45.8807 15.9102 44.5 15.9102L44.5 18.4102L44.5 20.9102ZM0.732231 16.6424C-0.244076 17.6187 -0.244076 19.2016 0.732231 20.1779L16.6421 36.0878C17.6184 37.0641 19.2014 37.0641 20.1777 36.0878C21.154 35.1115 21.154 33.5286 20.1777 32.5523L6.03553 18.4102L20.1777 4.26802C21.154 3.29171 21.154 1.7088 20.1777 0.732485C19.2014 -0.243826 17.6184 -0.243826 16.6421 0.732484L0.732231 16.6424ZM44.5 18.4102L44.5 15.9102L2.5 15.9102L2.5 18.4102L2.5 20.9102L44.5 20.9102L44.5 18.4102Z" fill="white"/>
</svg>
